<?xml version="1.0" encoding="utf-8"?>
<!-- Generator: Adobe Illustrator 27.5.0, SVG Export Plug-In . SVG Version: 6.00 Build 0)  -->
<svg version="1.1" xmlns="http://www.w3.org/2000/svg" xmlns:xlink="http://www.w3.org/1999/xlink" x="0px" y="0px"
	 viewBox="0 0 500 500" style="enable-background:new 0 0 500 500;" xml:space="preserve">
<g id="BACKGROUND_1_">
	<rect x="0.238" style="fill:#EFEFEF;" width="500" height="500"/>
</g>
<g id="OBJECTS">
	<g>
		<path style="fill:#7B9FD6;" d="M108.851,355.669V141.736c0-50.669,41.075-91.744,91.744-91.744h98.811
			c50.669,0,91.744,41.075,91.744,91.744v213.933H108.851z"/>
		<g>
			<path style="fill:#F5D269;" d="M190.544,257.246v41.146l0,0c-9.751,0-17.066-11.637-15.156-24.112l2.604-17.017L190.544,257.246z
				"/>
			<path style="fill:#F5D269;" d="M310.003,257.246v41.146l0,0c9.751,0,17.065-11.637,15.156-24.112l-2.604-17.017L310.003,257.246z
				"/>
		</g>
		<g>
			<g>
				<path style="fill:#FFA56E;" d="M183.943,284.488L183.943,284.488v-58.191h-4.763c-9.032,0-15.288,10.194-12.129,19.764
					l3.861,11.695c0.864,2.618,1.048,5.462,0.529,8.194l-0.156,0.823C169.555,275.89,175.699,284.488,183.943,284.488z"/>
				<path style="fill:#FFAD75;" d="M184.664,277.966h3.379V232.82l-8.04-0.027c-7.078-0.024-11.739,8.335-8.669,15.548l3.502,8.231
					c1.011,2.376,1.222,5.086,0.594,7.625l0,0C173.718,271.113,178.314,277.966,184.664,277.966z"/>
			</g>
			<g>
				<path style="fill:#FFA56E;" d="M315.891,284.488L315.891,284.488v-58.191h4.764c9.031,0,15.288,10.194,12.129,19.764
					l-3.86,11.695c-0.864,2.618-1.048,5.462-0.529,8.194l0.156,0.823C330.279,275.89,324.135,284.488,315.891,284.488z"/>
				<path style="fill:#FFAD75;" d="M315.171,277.966h-3.379V232.82l8.04-0.027c7.078-0.024,11.738,8.335,8.67,15.548l-3.503,8.231
					c-1.011,2.376-1.222,5.086-0.594,7.625l0,0C326.116,271.113,321.52,277.966,315.171,277.966z"/>
			</g>
		</g>
		<g>
			<path style="fill:#0B2852;" d="M335.478,435.007v0.001c-55.234,19.979-115.723,19.979-170.957,0v-0.001
				c-33.412-12.086-55.67-43.809-55.67-79.338l0,0l81.147-28.305h120.006l81.146,28.305l0,0
				C391.149,391.198,368.891,422.921,335.478,435.007z"/>
			<path style="fill:#071933;" d="M250,449.992h-11.111c-36.614,0-68.394-25.244-76.678-60.908l-1.667-7.178l9.65-12.092
				l-5.048-9.759l24.851-32.691H250V449.992z"/>
			<path style="fill:#071933;" d="M250.77,450.008h11.111c36.614,0,68.393-25.244,76.678-60.908l1.667-7.178l-9.65-12.091
				l5.048-9.759l-24.85-32.692H250.77V450.008z"/>
			<path style="fill:#EFEFEF;" d="M250.203,449.992L250.203,449.992c-33.139,0-60.003-26.864-60.003-60.003v-62.625h120.006v62.625
				C310.206,423.128,283.342,449.992,250.203,449.992z"/>
			<g>
				<polygon style="fill:#FFFFFF;" points="189.997,327.364 207.017,386.531 250,370.72 				"/>
				<polygon style="fill:#FFFFFF;" points="310.003,327.364 292.983,386.531 250,370.72 				"/>
			</g>
			<path style="fill:#E53535;" d="M255.464,388.678h-10.928c-3.357,0-6.078-2.721-6.078-6.078v-7.634L250,370.72l11.542,4.246v7.634
				C261.542,385.957,258.82,388.678,255.464,388.678z"/>
			<path style="fill:#DD2828;" d="M249.891,449.984h0.624c6.334-0.032,12.434-1.052,18.16-2.902l-12.428-58.404h-12.494
				l-12.401,58.275C237.188,448.884,243.415,449.951,249.891,449.984z"/>
			<g>
				<rect x="313.259" y="380.503" style="fill:#DB131D;" width="19.981" height="10.921"/>
				<g>
					
						<line style="fill:none;stroke:#FFFFFF;stroke-width:1.1749;stroke-miterlimit:10;" x1="313.259" y1="382.055" x2="333.24" y2="382.055"/>
					
						<line style="fill:none;stroke:#FFFFFF;stroke-width:1.1749;stroke-miterlimit:10;" x1="313.259" y1="384.615" x2="333.24" y2="384.615"/>
					
						<line style="fill:none;stroke:#FFFFFF;stroke-width:1.1749;stroke-miterlimit:10;" x1="313.259" y1="387.176" x2="333.24" y2="387.176"/>
					
						<line style="fill:none;stroke:#FFFFFF;stroke-width:1.1749;stroke-miterlimit:10;" x1="313.259" y1="389.737" x2="333.24" y2="389.737"/>
				</g>
				<rect x="313.259" y="380.503" style="fill:#071933;" width="9.121" height="5.461"/>
				<g>
					
						<line style="fill:none;stroke:#FFFFFF;stroke-width:0.8812;stroke-miterlimit:10;" x1="314.017" y1="381.771" x2="315.042" y2="381.771"/>
					
						<line style="fill:none;stroke:#FFFFFF;stroke-width:0.8812;stroke-miterlimit:10;" x1="316.21" y1="381.771" x2="317.235" y2="381.771"/>
					
						<line style="fill:none;stroke:#FFFFFF;stroke-width:0.8812;stroke-miterlimit:10;" x1="320.597" y1="381.771" x2="321.622" y2="381.771"/>
					
						<line style="fill:none;stroke:#FFFFFF;stroke-width:0.8812;stroke-miterlimit:10;" x1="318.403" y1="381.771" x2="319.429" y2="381.771"/>
					
						<line style="fill:none;stroke:#FFFFFF;stroke-width:0.8812;stroke-miterlimit:10;" x1="314.017" y1="383.233" x2="315.042" y2="383.233"/>
					
						<line style="fill:none;stroke:#FFFFFF;stroke-width:0.8812;stroke-miterlimit:10;" x1="316.21" y1="383.233" x2="317.235" y2="383.233"/>
					
						<line style="fill:none;stroke:#FFFFFF;stroke-width:0.8812;stroke-miterlimit:10;" x1="320.597" y1="383.233" x2="321.622" y2="383.233"/>
					
						<line style="fill:none;stroke:#FFFFFF;stroke-width:0.8812;stroke-miterlimit:10;" x1="318.403" y1="383.233" x2="319.429" y2="383.233"/>
					
						<line style="fill:none;stroke:#FFFFFF;stroke-width:0.8812;stroke-miterlimit:10;" x1="314.017" y1="384.696" x2="315.042" y2="384.696"/>
					
						<line style="fill:none;stroke:#FFFFFF;stroke-width:0.8812;stroke-miterlimit:10;" x1="316.21" y1="384.696" x2="317.235" y2="384.696"/>
					
						<line style="fill:none;stroke:#FFFFFF;stroke-width:0.8812;stroke-miterlimit:10;" x1="320.597" y1="384.696" x2="321.622" y2="384.696"/>
					
						<line style="fill:none;stroke:#FFFFFF;stroke-width:0.8812;stroke-miterlimit:10;" x1="318.403" y1="384.696" x2="319.429" y2="384.696"/>
				</g>
			</g>
		</g>
		<g>
			<g>
				<polygon style="fill:#FFB37B;" points="310.003,327.364 250,370.72 189.997,327.364 189.997,226.297 310.003,226.297 				"/>
				<g>
					<path style="fill:#FFA56E;" d="M280.977,330.614h-61.953c-16.031,0-29.026-12.995-29.026-29.026V186.192h120.006v115.395
						C310.003,317.619,297.007,330.614,280.977,330.614z"/>
					<path style="fill:#FFA56E;" d="M250,345.541L250,345.541c-18.546,0-33.581-15.034-33.581-33.581V239.1h67.162v72.86
						C283.581,330.507,268.546,345.541,250,345.541z"/>
				</g>
			</g>
			<path style="fill:#FFBC80;" d="M279.832,313.567H219.94c-19.239,0-35.417-15.417-37.607-35.838l-1.032-9.621
				c-1.906-17.774-1.879-35.726,0.081-53.494l5.015-45.469h127.201l4.933,44.718c2.015,18.264,1.986,36.718-0.083,54.975
				l-1.037,9.148C315.108,298.295,298.977,313.567,279.832,313.567z"/>
			<path style="fill:#FFBD80;" d="M250,328.67L250,328.67c-18.546,0-33.581-15.034-33.581-33.581v-72.86h67.162v72.86
				C283.581,313.636,268.546,328.67,250,328.67z"/>
			<path style="fill:#FFC48E;" d="M264.456,299.226h-28.912c-12.037,0-21.794-9.757-21.794-21.794v-76.228h72.5v76.228
				C286.25,289.469,276.492,299.226,264.456,299.226z"/>
			<path style="fill:#FFCB93;" d="M266.574,298.25h-33.148c-10.867,0-19.676-8.81-19.676-19.676l0,0
				c0-19.548,15.847-35.395,35.395-35.395h1.71c19.548,0,35.395,15.847,35.395,35.395l0,0
				C286.25,289.44,277.44,298.25,266.574,298.25z"/>
			<g>
				<path style="fill:#FFB37B;" d="M269.553,302.38c0,6.672-8.663,12.08-19.35,12.08s-19.35-5.408-19.35-12.08
					c0-6.671,8.663-12.079,19.35-12.079S269.553,295.709,269.553,302.38z"/>
				<path style="fill:#FFC48E;" d="M269.553,305.167c0,6.671-8.663,12.079-19.35,12.079s-19.35-5.408-19.35-12.079
					c0-6.672,8.663-12.08,19.35-12.08S269.553,298.495,269.553,305.167z"/>
			</g>
		</g>
		<g>
			<path style="fill:#FFBD80;" d="M259.759,253.459h-19.518c-2.358,0-4.27-1.911-4.27-4.27v-3.297
				c0-7.748,6.281-14.029,14.029-14.029l0,0c7.748,0,14.028,6.281,14.028,14.029v3.297
				C264.028,251.548,262.117,253.459,259.759,253.459z"/>
			<path style="fill:#FFCB93;" d="M250.667,249.883h-1.335c-4.211,0-7.625-3.414-7.625-7.624v-41.055h16.585v41.055
				C258.292,246.47,254.879,249.883,250.667,249.883z"/>
			<path style="fill:#FFA56E;" d="M244.131,250.446L244.131,250.446c-1.621,0-2.935,1.314-2.935,2.935v0.078h5.869v-0.078
				C247.065,251.76,245.751,250.446,244.131,250.446z"/>
			<path style="fill:#FFC48E;" d="M250,256.473L250,256.473c1.621,0,2.935-1.313,2.935-2.935v-0.079h-5.869v0.079
				C247.065,255.159,248.379,256.473,250,256.473z"/>
			<path style="fill:#FFA56E;" d="M255.869,250.446L255.869,250.446c-1.621,0-2.934,1.314-2.934,2.935v0.078h5.869v-0.078
				C258.804,251.76,257.49,250.446,255.869,250.446z"/>
		</g>
		<g>
			<path style="fill:#FFA56E;" d="M250.419,271.285c-0.28-0.003-0.559-0.003-0.839,0c-7.467,0.04-14.575,0.748-19.736,0.831l0,0
				c12.299-7.713,28.012-7.713,40.312,0l0,0C264.994,272.033,257.887,271.325,250.419,271.285z"/>
			<path style="fill:#FFBA82;" d="M275.117,277.818c-0.951-0.935-1.934-1.814-2.944-2.638c-13.153-10.772-31.192-10.772-44.346,0
				c-1.01,0.823-1.993,1.703-2.945,2.638c-0.013-0.023,2.14-3.236,2.905-4.216l0,0c6.785-4.859,5.646-6.252,13.118-8.646
				c1.191-0.317,5.062,0.506,9.046,0.556c3.689-0.024,7.394-0.949,9.049-0.493c7.833,2.458,8.433,5.111,13.132,8.52l0,0
				C273.157,274.908,274.153,276.335,275.117,277.818z"/>
		</g>
		<g>
			<g>
				<path style="fill:#F5DE88;" d="M218.71,223.291L218.71,223.291c12.847,0,23.261-9.128,23.261-20.389v-9.169l-30.92-6.29
					c-7.978-1.623-15.602,3.687-15.602,10.865v4.595C195.449,214.163,205.863,223.291,218.71,223.291z"/>
				<path style="fill:#FFCB93;" d="M218.71,230.743L218.71,230.743c12.847,0,23.261-9.129,23.261-20.389v-9.169l-30.92-6.291
					c-7.978-1.623-15.602,3.686-15.602,10.865v4.595C195.449,221.614,205.863,230.743,218.71,230.743z"/>
				<path style="fill:#FFBD80;" d="M220.004,208.51c0.348-0.041,0.706-0.073,1.055-0.094l3.985-0.241
					c4.751,0,8.603,3.852,8.603,8.603l0,0h-29.876c0,0,0.127-5.035,3.934-5.934C211.731,209.892,215.037,209.104,220.004,208.51z"/>
				<path style="fill:#FFFFFF;" d="M203.771,216.778h29.876l0,0c0-3.007-2.915-5.581-6.837-5.084l-20.237,1.992
					C204.984,213.842,203.771,215.18,203.771,216.778L203.771,216.778z"/>
				<path style="fill:#FFD4A6;" d="M220.362,230.743h-3.305c-7.337,0-13.286-5.948-13.286-13.286v-0.68h29.876v0.68
					C233.648,224.795,227.7,230.743,220.362,230.743z"/>
				<path style="fill:#7B9FD6;" d="M222.53,212.115v3.354c0,0.46-0.08,0.89-0.19,1.31h-9.48c-0.11-0.42-0.2-0.85-0.2-1.31v-2.382
					L222.53,212.115z"/>
				<path style="fill:#2B1F14;" d="M217.599,213.42c-0.768,0-1.392,0.623-1.392,1.392c0,0.768,0.623,1.391,1.392,1.391
					c0.768,0,1.391-0.623,1.391-1.391C218.99,214.043,218.367,213.42,217.599,213.42z"/>
			</g>
			<g>
				<path style="fill:#F5DE88;" d="M281.553,223.291L281.553,223.291c-12.846,0-23.261-9.128-23.261-20.389v-9.169l30.92-6.29
					c7.978-1.623,15.603,3.687,15.603,10.865v4.595C304.814,214.163,294.399,223.291,281.553,223.291z"/>
				<path style="fill:#FFCB93;" d="M281.553,230.743L281.553,230.743c-12.846,0-23.261-9.129-23.261-20.389v-9.169l30.92-6.291
					c7.978-1.623,15.603,3.686,15.603,10.865v4.595C304.814,221.614,294.399,230.743,281.553,230.743z"/>
				<path style="fill:#FFBD80;" d="M280.258,208.51c-0.348-0.041-0.705-0.073-1.055-0.094l-3.985-0.241
					c-4.751,0-8.603,3.852-8.603,8.603l0,0h29.876c0,0-0.127-5.035-3.934-5.934C288.532,209.892,285.227,209.104,280.258,208.51z"/>
				<path style="fill:#FFFFFF;" d="M296.491,216.778h-29.876l0,0c0-3.007,2.915-5.581,6.837-5.084l20.236,1.992
					C295.279,213.842,296.491,215.18,296.491,216.778L296.491,216.778z"/>
				<path style="fill:#FFD4A6;" d="M279.9,230.743h3.306c7.337,0,13.285-5.948,13.285-13.286v-0.68h-29.876v0.68
					C266.615,224.795,272.564,230.743,279.9,230.743z"/>
				<path style="fill:#7B9FD6;" d="M277.732,212.115v3.354c0,0.46,0.08,0.89,0.19,1.31h9.48c0.109-0.42,0.2-0.85,0.2-1.31v-2.382
					L277.732,212.115z"/>
				<path style="fill:#2B1F14;" d="M282.664,213.42c0.768,0,1.392,0.623,1.392,1.392c0,0.768-0.623,1.391-1.392,1.391
					c-0.769,0-1.392-0.623-1.392-1.391C281.272,214.043,281.896,213.42,282.664,213.42z"/>
			</g>
		</g>
		<g>
			<g>
				<path style="fill:#F5DE88;" d="M189.723,241.046L189.723,241.046V160.7l0,0c-13.373,0-23.405,12.232-20.786,25.347l0.28,34.659
					C169.308,231.966,178.462,241.046,189.723,241.046z"/>
				<path style="fill:#F5D269;" d="M189.723,203.953v-11.731V160.7l0,0c-12.538,0-22.138,10.751-21.131,22.901
					c0.173,2.096,0.359,4.19,0.376,6.292l0.114,14.042L189.723,203.953z"/>
			</g>
			<g>
				<path style="fill:#F5DE88;" d="M310.019,241.046L310.019,241.046V140.378l0,0c13.374,0,23.405,32.555,20.787,45.669
					l-0.28,34.659C330.434,231.966,321.279,241.046,310.019,241.046z"/>
				<path style="fill:#F5D269;" d="M310.019,203.953v-11.731v-51.844l0,0c12.538,0,22.139,10.751,21.132,22.901
					c-0.174,2.095-0.359,24.512-0.376,26.614l-0.113,14.042L310.019,203.953z"/>
			</g>
		</g>
		<g>
			<path style="fill:#F5DE88;" d="M304.106,182.282h-47.947c-3.767,0-7.526-0.311-11.242-0.931l-37.031-6.178
				c-8.219-1.371-16.62-1.227-24.788,0.425l-33.041,6.684v-1.643c0-32.112,22.364-59.89,53.736-66.745l0,0
				c7.851-1.715,15.943-2.032,23.904-0.936l76.455,10.529c8.938,1.231,15.595,8.868,15.595,17.89v25.263l0,0
				C319.748,175.279,312.745,182.282,304.106,182.282z"/>
			<path style="fill:#FFEAA9;" d="M304.106,169.098h-47.947c-3.767,0-7.526-0.311-11.242-0.931l-37.031-6.178
				c-8.219-1.371-16.62-1.227-24.788,0.425l-32.028,6.479c-0.666,3.827-1.013,7.752-1.013,11.745v1.643l33.041-6.684
				c8.167-1.652,16.568-1.796,24.788-0.425l37.031,6.178c3.715,0.62,7.475,0.931,11.242,0.931h47.947
				c8.639,0,15.642-7.003,15.642-15.642v-0.001v-13.184C319.748,162.095,312.745,169.098,304.106,169.098z"/>
			<path style="fill:#F5D269;" d="M304.153,123.487l-76.455-10.529c-7.961-1.097-16.053-0.78-23.904,0.936l0,0
				c-12.523,2.736-23.603,8.814-32.406,17.163c3.445-1.064,7.005-1.95,10.673-2.625l0,0c9.322-1.715,18.931-2.032,28.384-0.936
				l90.785,10.529c10.612,1.23,18.517,8.868,18.517,17.889v-14.538C319.748,132.355,313.091,124.718,304.153,123.487z"/>
		</g>
	</g>
</g>
<g id="DESIGNED_BY_FREEPIK">
	<g>
		<g id="XMLID_11_">
			<g id="XMLID_43_">
				<path id="XMLID_51_" style="fill:#A5B7C6;" d="M257.169,474.628c-0.432,0.443-0.803,0.931-1.108,1.453l-0.465-0.241
					c-0.066-0.297-0.349-0.502-0.658-0.466c-0.331,0.039-0.568,0.339-0.529,0.67c0.039,0.331,0.339,0.567,0.67,0.528
					c0.066-0.008,0.127-0.025,0.184-0.052l0.451,0.234c-0.251,0.554-0.433,1.139-0.539,1.743l0.746,0.132
					c0.23-1.306,0.85-2.507,1.792-3.473L257.169,474.628z"/>
				<path id="XMLID_50_" style="fill:#A5B7C6;" d="M262.657,472.326c-0.171,0-0.341,0.006-0.51,0.017l-0.073-0.626
					c0.188-0.149,0.296-0.389,0.266-0.645c-0.047-0.393-0.402-0.674-0.796-0.628c-0.392,0.046-0.674,0.402-0.628,0.795
					c0.03,0.255,0.19,0.462,0.405,0.564l0.073,0.624c-0.714,0.116-1.403,0.332-2.06,0.646l0.327,0.685
					c0.934-0.447,1.941-0.674,2.995-0.674c0.496,0,0.993,0.053,1.475,0.158l0.161-0.741
					C263.758,472.385,263.207,472.326,262.657,472.326z"/>
				<path id="XMLID_49_" style="fill:#A5B7C6;" d="M269.26,474.873c0.331-0.04,0.566-0.341,0.525-0.672
					c-0.041-0.331-0.342-0.566-0.672-0.525c-0.31,0.037-0.536,0.304-0.53,0.608l-0.416,0.363c-0.418-0.431-0.89-0.813-1.408-1.14
					l-0.403,0.642c1.134,0.715,2.021,1.727,2.563,2.925l0.691-0.313c-0.251-0.554-0.568-1.071-0.942-1.545l0.402-0.351
					C269.13,474.878,269.194,474.882,269.26,474.873z"/>
				<path id="XMLID_48_" style="fill:#A5B7C6;" d="M262.109,482.534c-0.386,0.023-0.774,0.035-1.157,0.035
					c-0.88,0-1.732-0.061-2.478-0.18c-0.39-0.061-0.846-0.154-1.27-0.292c1.046,1.861,3.069,3.125,5.388,3.125
					c2.855,0,5.263-1.916,5.95-4.503c-0.682,0.449-1.506,0.825-2.459,1.122C264.904,482.21,263.529,482.449,262.109,482.534z"/>
				<path id="XMLID_44_" style="fill:#A5B7C6;" d="M262.657,473.842c-3.353,0-6.08,2.667-6.08,5.944
					c0,0.425,0.047,0.849,0.138,1.261c0.674,0.482,2.705,0.891,5.348,0.731c2.879-0.174,5.297-0.958,6.672-2.159
					c-0.006-0.194-0.021-0.39-0.045-0.581C268.309,476.076,265.716,473.842,262.657,473.842z M260.498,480.357
					c-1.02,0-1.85-0.83-1.85-1.851c0-1.02,0.829-1.85,1.85-1.85c1.02,0,1.85,0.83,1.85,1.85
					C262.348,479.527,261.518,480.357,260.498,480.357z M265.235,479.449c-0.75,0-1.36-0.61-1.36-1.36s0.61-1.36,1.36-1.36
					s1.36,0.61,1.36,1.36S265.985,479.449,265.235,479.449z"/>
			</g>
			<path id="XMLID_41_" style="fill:#A5B7C6;" d="M278.66,475.709c-0.294-0.115-0.805-0.309-1.382-0.237
				c-0.551,0.069-0.844,0.341-0.844,1.007v0.866h2.227v1.717h-2.227v5.455h-1.932v-5.455h-1.34v-1.717h1.34v-0.889
				c0-1.68,0.896-2.782,2.568-2.782c0.643,0,1.157,0.121,1.59,0.308L278.66,475.709z"/>
			<path id="XMLID_39_" style="fill:#A5B7C6;" d="M283.363,479.041c-0.177-0.029-0.357-0.046-0.526-0.046
				c-0.895,0-1.51,0.548-1.51,1.613v3.908h-1.932v-7.172h1.872v0.784c0.452-0.673,1.141-0.977,2.022-0.977
				c0.414,0,0.848,0.127,1.094,0.337L283.363,479.041z"/>
			<path id="XMLID_36_" style="fill:#A5B7C6;" d="M291.03,480.92c0,0.222-0.015,0.488-0.037,0.651h-5.085
				c0.208,1.036,0.934,1.487,1.844,1.487c0.621,0,1.295-0.252,1.812-0.689l1.133,1.243c-0.815,0.748-1.851,1.089-3.057,1.089
				c-2.198,0-3.723-1.496-3.723-3.753c0-2.258,1.48-3.797,3.626-3.797C289.609,477.152,291.023,478.685,291.03,480.92z
				 M285.916,480.253h3.175c-0.177-0.917-0.732-1.435-1.561-1.435C286.619,478.817,286.086,479.365,285.916,480.253z"/>
			<path id="XMLID_33_" style="fill:#A5B7C6;" d="M298.684,480.92c0,0.222-0.015,0.488-0.037,0.651h-5.084
				c0.207,1.036,0.932,1.487,1.843,1.487c0.621,0,1.295-0.252,1.813-0.689l1.132,1.243c-0.814,0.748-1.851,1.089-3.057,1.089
				c-2.198,0-3.723-1.496-3.723-3.753c0-2.258,1.48-3.797,3.626-3.797C297.263,477.152,298.677,478.685,298.684,480.92z
				 M293.569,480.253h3.175c-0.178-0.917-0.732-1.435-1.561-1.435C294.272,478.817,293.739,479.365,293.569,480.253z"/>
			<path id="XMLID_30_" style="fill:#A5B7C6;" d="M307.029,480.927c0,2.154-1.495,3.775-3.471,3.775
				c-0.963,0-1.644-0.378-2.109-0.933v3.708h-1.925v-10.133h1.888v0.792c0.466-0.585,1.154-0.984,2.139-0.984
				C305.534,477.152,307.029,478.773,307.029,480.927z M301.352,480.927c0,1.133,0.747,1.977,1.843,1.977
				c1.14,0,1.851-0.881,1.851-1.977c0-1.095-0.711-1.976-1.851-1.976C302.1,478.951,301.352,479.795,301.352,480.927z"/>
			<path id="XMLID_14_" style="fill:#A5B7C6;" d="M310.133,474.998c0,0.696-0.54,1.229-1.236,1.229
				c-0.695,0-1.228-0.532-1.228-1.229c0-0.695,0.533-1.243,1.228-1.243C309.593,473.755,310.133,474.303,310.133,474.998z
				 M309.874,484.517h-1.932v-7.172h1.932V484.517z"/>
			<path id="XMLID_12_" style="fill:#A5B7C6;" d="M313.098,479.898l2.701-2.554h2.369l-3.479,3.375l3.501,3.797h-2.376l-2.716-2.901
				v2.901h-1.932v-10.658h1.932V479.898z"/>
		</g>
		<g>
			<path style="fill:#A5B7C6;" d="M181.478,484.451v-1.055c-0.527,0.719-1.392,1.23-2.388,1.23c-1.846,0-3.149-1.406-3.149-3.705
				c0-2.256,1.289-3.721,3.149-3.721c0.952,0,1.816,0.469,2.388,1.245v-3.765h1.099v9.77H181.478z M181.478,482.533v-3.208
				c-0.396-0.615-1.245-1.143-2.124-1.143c-1.421,0-2.271,1.172-2.271,2.739c0,1.567,0.85,2.725,2.271,2.725
				C180.233,483.647,181.082,483.148,181.478,482.533z"/>
			<path style="fill:#A5B7C6;" d="M183.997,480.907c0-2.051,1.465-3.706,3.486-3.706c2.139,0,3.398,1.67,3.398,3.794v0.278h-5.727
				c0.088,1.333,1.025,2.446,2.549,2.446c0.806,0,1.626-0.323,2.183-0.893l0.527,0.718c-0.703,0.703-1.655,1.083-2.813,1.083
				C185.506,484.627,183.997,483.119,183.997,480.907z M187.469,478.109c-1.509,0-2.256,1.274-2.314,2.358h4.644
				C189.783,479.413,189.08,478.109,187.469,478.109z"/>
			<path style="fill:#A5B7C6;" d="M191.672,483.514l0.571-0.79c0.469,0.542,1.362,1.011,2.329,1.011c1.084,0,1.67-0.514,1.67-1.216
				c0-1.714-4.38-0.659-4.38-3.281c0-1.099,0.952-2.036,2.637-2.036c1.201,0,2.051,0.454,2.622,1.025l-0.513,0.762
				c-0.424-0.513-1.201-0.894-2.109-0.894c-0.967,0-1.567,0.483-1.567,1.113c0,1.553,4.379,0.527,4.379,3.281
				c0,1.187-0.952,2.138-2.783,2.138C193.372,484.627,192.39,484.275,191.672,483.514z"/>
			<path style="fill:#A5B7C6;" d="M198.542,475.634c0-0.41,0.337-0.747,0.732-0.747c0.41,0,0.747,0.337,0.747,0.747
				c0,0.41-0.337,0.732-0.747,0.732C198.879,476.366,198.542,476.044,198.542,475.634z M198.732,484.451v-7.074h1.099v7.074H198.732
				z"/>
			<path style="fill:#A5B7C6;" d="M201.647,486.268l0.557-0.82c0.586,0.703,1.289,0.968,2.3,0.968c1.172,0,2.27-0.571,2.27-2.124
				v-1.012c-0.512,0.719-1.376,1.261-2.373,1.261c-1.845,0-3.149-1.378-3.149-3.662c0-2.271,1.289-3.677,3.149-3.677
				c0.952,0,1.802,0.469,2.373,1.245v-1.069h1.099v6.87c0,2.344-1.641,3.075-3.369,3.075
				C203.303,487.322,202.482,487.088,201.647,486.268z M206.774,482.416v-3.091c-0.381-0.615-1.23-1.143-2.109-1.143
				c-1.421,0-2.27,1.128-2.27,2.695c0,1.553,0.849,2.695,2.27,2.695C205.543,483.573,206.393,483.031,206.774,482.416z"/>
			<path style="fill:#A5B7C6;" d="M214.479,484.451v-4.628c0-1.245-0.629-1.641-1.581-1.641c-0.865,0-1.685,0.527-2.095,1.099v5.17
				h-1.099v-7.074h1.099v1.025c0.498-0.586,1.464-1.201,2.519-1.201c1.48,0,2.256,0.747,2.256,2.285v4.965H214.479z"/>
			<path style="fill:#A5B7C6;" d="M216.998,480.907c0-2.051,1.465-3.706,3.486-3.706c2.138,0,3.398,1.67,3.398,3.794v0.278h-5.728
				c0.088,1.333,1.025,2.446,2.549,2.446c0.805,0,1.625-0.323,2.183-0.893l0.527,0.718c-0.703,0.703-1.655,1.083-2.812,1.083
				C218.507,484.627,216.998,483.119,216.998,480.907z M220.47,478.109c-1.509,0-2.256,1.274-2.314,2.358h4.643
				C222.784,479.413,222.081,478.109,220.47,478.109z"/>
			<path style="fill:#A5B7C6;" d="M230.415,484.451v-1.055c-0.527,0.719-1.392,1.23-2.388,1.23c-1.845,0-3.149-1.406-3.149-3.705
				c0-2.256,1.289-3.721,3.149-3.721c0.952,0,1.817,0.469,2.388,1.245v-3.765h1.098v9.77H230.415z M230.415,482.533v-3.208
				c-0.396-0.615-1.245-1.143-2.124-1.143c-1.421,0-2.27,1.172-2.27,2.739c0,1.567,0.85,2.725,2.27,2.725
				C229.17,483.647,230.02,483.148,230.415,482.533z"/>
			<path style="fill:#A5B7C6;" d="M236.757,484.451v-9.77h1.099v3.765c0.572-0.776,1.421-1.245,2.388-1.245
				c1.846,0,3.149,1.465,3.149,3.721c0,2.299-1.304,3.705-3.149,3.705c-0.996,0-1.86-0.512-2.388-1.23v1.055H236.757z
				 M239.965,483.647c1.436,0,2.285-1.157,2.285-2.725c0-1.567-0.85-2.739-2.285-2.739c-0.864,0-1.729,0.527-2.109,1.143v3.208
				C238.237,483.148,239.101,483.647,239.965,483.647z"/>
			<path style="fill:#A5B7C6;" d="M244.594,486.224c0.161,0.074,0.425,0.117,0.601,0.117c0.483,0,0.805-0.161,1.055-0.746
				l0.468-1.069l-2.959-7.148h1.187l2.358,5.801l2.344-5.801h1.201l-3.545,8.511c-0.425,1.024-1.143,1.421-2.08,1.435
				c-0.234,0-0.601-0.044-0.806-0.103L244.594,486.224z"/>
		</g>
	</g>
</g>
</svg>
